<?xml version="1.0" encoding="utf-8"?>
<!-- Generator: Adobe Illustrator 19.0.0, SVG Export Plug-In . SVG Version: 6.00 Build 0)  -->
<svg version="1.1" id="Livello_1" xmlns="http://www.w3.org/2000/svg" xmlns:xlink="http://www.w3.org/1999/xlink" x="0px" y="0px"
	 width="236" height="60" viewBox="0 0 236 60" style="enable-background:new 0 0 236 60;" xml:space="preserve">
<style type="text/css">
	.st0{fill:#474F55;}
	.st1{fill:#EB711E;}
	.st2{fill-rule:evenodd;clip-rule:evenodd;fill:url(#XMLID_18_);}
</style>
<g id="XMLID_20_">
	<path id="XMLID_40_" class="st0" d="M76.5,10.1v32.8c0,0.9-0.7,1.6-1.6,1.6c-0.9,0-1.6-0.7-1.6-1.6V10.1c0-0.9,0.7-1.6,1.6-1.6
		C75.7,8.4,76.5,9.2,76.5,10.1z"/>
	<path id="XMLID_37_" class="st0" d="M105.9,18.5v24.4c0,0.9-0.7,1.6-1.6,1.6c-0.9,0-1.6-0.7-1.6-1.6v-2.9c-2.4,2.8-5.8,4.5-9.8,4.5
		c-7.4,0-13-5.9-13-13.8s5.6-13.8,13-13.8c4,0,7.5,1.7,9.8,4.4v-2.9c0-0.9,0.7-1.6,1.6-1.6C105.2,16.9,105.9,17.7,105.9,18.5z
		 M102.6,30.7c0-6-4.2-10.6-9.8-10.6c-5.6,0-9.8,4.6-9.8,10.6c0,6,4.2,10.5,9.8,10.5C98.4,41.3,102.6,36.7,102.6,30.7z"/>
	<path id="XMLID_34_" class="st0" d="M135.6,30.7c0,7.9-5.6,13.8-13.1,13.8c-4,0-7.4-1.7-9.8-4.5v2.9c0,0.9-0.8,1.6-1.6,1.6
		c-0.9,0-1.6-0.7-1.6-1.6V10.1c0-0.9,0.7-1.6,1.6-1.6c0.9,0,1.6,0.7,1.6,1.6v11.3c2.4-2.8,5.8-4.4,9.8-4.4
		C130,16.9,135.6,22.9,135.6,30.7z M132.3,30.7c0-6-4.2-10.6-9.8-10.6c-5.6,0-9.8,4.6-9.8,10.6c0,6,4.2,10.5,9.8,10.5
		C128.2,41.3,132.3,36.7,132.3,30.7z"/>
	<path id="XMLID_31_" class="st0" d="M151.5,44.6c-7.5,0-13-5.9-13-13.8c0-3.7,1.2-7.2,3.5-9.7c2.4-2.7,5.7-4.1,9.3-4.1
		c7.3,0,12.6,5.8,12.6,13.8c0,0.9-0.7,1.6-1.6,1.6h-20.4c0.7,5.2,4.7,8.9,9.7,8.9c3.4,0,6.4-1.6,8.2-4.6c0.5-0.8,1.5-1,2.2-0.5
		c0.8,0.5,1,1.5,0.6,2.2C160.1,42.3,156.1,44.6,151.5,44.6z M141.8,29.1h18.7c-0.6-5.3-4.2-8.9-9.2-8.9
		C146.2,20.2,142.4,23.8,141.8,29.1z"/>
	<path id="XMLID_29_" class="st0" d="M170.6,10.1v32.8c0,0.9-0.7,1.6-1.6,1.6c-0.9,0-1.6-0.7-1.6-1.6V10.1c0-0.9,0.7-1.6,1.6-1.6
		C169.9,8.4,170.6,9.2,170.6,10.1z"/>
	<path id="XMLID_26_" class="st1" d="M172.8,58.6c-2.4,0-4.6-1.3-5.8-3.4c-0.4-0.8-0.2-1.7,0.7-2.2c0.8-0.4,1.7-0.2,2.2,0.7
		c0.6,1,1.7,1.7,2.9,1.7c1.8,0,3.4-1.5,3.4-3.3V18.6c0-0.9,0.7-1.6,1.6-1.6c0.9,0,1.6,0.7,1.6,1.6V52
		C179.4,55.6,176.4,58.6,172.8,58.6z M177.8,10.9c1,0,1.8,0.8,1.8,1.7c0,0.9-0.8,1.7-1.8,1.7c-1,0-1.8-0.8-1.8-1.7
		C176,11.7,176.8,10.9,177.8,10.9z"/>
	<path id="XMLID_23_" class="st1" d="M196.5,44.6c-7.6,0-13.8-6.2-13.8-13.8s6.2-13.8,13.8-13.8c7.6,0,13.8,6.2,13.8,13.8
		S204.1,44.6,196.5,44.6z M196.5,20.2c-5.8,0-10.5,4.8-10.5,10.6s4.7,10.5,10.5,10.5c5.8,0,10.5-4.7,10.5-10.5
		S202.3,20.2,196.5,20.2z"/>
	<path id="XMLID_21_" class="st1" d="M236,18.5v28.1c0,6.6-5.4,12-12,12c-4.3,0-8.3-2.4-10.5-6.2c-0.4-0.8-0.2-1.7,0.7-2.2
		c0.8-0.4,1.8-0.2,2.2,0.7c1.5,2.8,4.4,4.4,7.6,4.4c4.8,0,8.7-3.9,8.7-8.7v-5.5c-2,2.1-4.9,3.4-8,3.4c-6.4,0-11.4-5.1-11.4-12V18.5
		c0-0.9,0.8-1.6,1.6-1.6c0.9,0,1.6,0.7,1.6,1.6v14.1c0,5,3.5,8.7,8.1,8.7c4.6,0,8-3.7,8-8.7V18.5c0-0.9,0.7-1.6,1.6-1.6
		C235.2,16.9,236,17.7,236,18.5z"/>
</g>
<linearGradient id="XMLID_18_" gradientUnits="userSpaceOnUse" x1="9.6149" y1="-2.222" x2="47.1411" y2="62.7753">
	<stop  offset="0.1672" style="stop-color:#EF8810"/>
	<stop  offset="0.8374" style="stop-color:#EB711E"/>
</linearGradient>
<path id="XMLID_17_" class="st2" d="M53.5,2H37.6L26.8,44.6c-0.3,1-0.9,1.4-1.9,1.4h-4.9c-0.5,0-0.8-0.1-1.2-0.3
	c-0.5-0.4-0.7-1-0.5-1.7L28.9,2H3.1C1.4,2,0,3.4,0,5.1v49.1c0,2.9,1.4,4.4,3.1,4.4H25c0.7-0.3,1.3-0.8,1.9-1.3
	c2.1-1.8,3.5-3.9,4.2-6.5l7.7-29.2c0.2-0.9,0.8-1.3,1.6-1.3h5.2c0.5,0,0.8,0.1,1,0.2c0.4,0.3,0.5,0.6,0.4,1.2L39,52
	c-0.6,2.5-1.7,4.7-3.2,6.6h17.7c1.7,0,3.1-1.4,3.1-3.1V5.1C56.6,3.4,55.2,2,53.5,2z M49.8,13.6c-0.9,1.2-2.3,1.8-4,1.8H45
	c-0.9,0-1.8-0.3-2.6-0.9c-1.1-0.9-1.7-2-1.7-3.3c0-0.9,0.3-1.7,0.8-2.4c0.9-1.2,2.2-1.8,4-1.8h0.9c0.9,0,1.8,0.3,2.6,1
	c1.1,0.9,1.7,2,1.7,3.3C50.7,12.1,50.4,12.9,49.8,13.6z"/>
</svg>
