<?xml version="1.0" encoding="utf-8"?>
<!-- Generator: Adobe Illustrator 19.2.1, SVG Export Plug-In . SVG Version: 6.00 Build 0)  -->
<svg version="1.1" id="layer" xmlns="http://www.w3.org/2000/svg" xmlns:xlink="http://www.w3.org/1999/xlink" x="0px" y="0px"
	 viewBox="0 0 652 652" style="enable-background:new 0 0 652 652;" xml:space="preserve">
<style type="text/css">
	.st0{fill:#3F32E7;}
	.st1{fill:#02C9FD;}
	.st2{fill:#0072E5;}
	.st3{fill:#0A1A7C;}
</style>
<rect x="26.9" y="239" class="st0" width="24.5" height="24.5"/>
<rect x="26.9" y="263.5" class="st1" width="24.5" height="24.5"/>
<rect x="51.4" y="263.5" class="st2" width="24.5" height="24.5"/>
<path class="st3" d="M91.1,288v-39.8H99v32.5h15.3v7.2L91.1,288z M115.8,273.9c-0.1-3.9,1.3-7.7,4.1-10.5c2.8-2.8,6.5-4.3,10.4-4.1
	c3.9-0.2,7.7,1.3,10.5,4.1c2.7,2.8,4.2,6.6,4,10.5c0.1,3.9-1.3,7.7-4,10.5c-2.8,2.8-6.6,4.3-10.5,4.2c-3.9,0.1-7.7-1.4-10.4-4.2
	C117.1,281.6,115.7,277.8,115.8,273.9z M123.3,273.9c-0.1,2,0.6,3.9,2,5.3c1.3,1.4,3.1,2.2,5,2.1c1.9,0.1,3.7-0.7,5-2.1
	c1.3-1.4,2-3.3,1.9-5.3c0.1-1.9-0.6-3.8-1.9-5.3c-2.8-2.7-7.2-2.7-10,0C124,270.1,123.3,272,123.3,273.9L123.3,273.9z M149.5,259.8
	v-2.5c0-6.1,3-9.1,8.9-9.1h5.8v5.8h-3.3c-1.8-0.3-3.4,0.9-3.7,2.7c-0.1,0.3-0.1,0.7,0,1v2.1h6.4v5.8h-6.4V288h-7.8v-22.3h-3.6v-5.8
	H149.5z M165.2,265.6v-5.8h3.7v-8.6h7.7v8.6h6v5.8h-6v13c0,0.6,0.1,1.3,0.3,1.9c0.2,0.4,0.5,0.8,1,1c0.4,0.2,0.8,0.3,1.2,0.4
	c0.5,0,0.9,0,1.4,0h1.9v5.9h-5c-5.5,0-8.3-2.7-8.3-8.1v-14.1H165.2z M183.7,259.8h7.9l5.5,17.3l6.1-17.3h5.7l6.1,17.3l5.4-17.3h7.9
	l-9.2,28.2h-7.5l-5.6-16.4l-5.6,16.5h-7.5L183.7,259.8z M231.8,263.4c2.4-2.7,5.9-4.2,9.6-4.1c3.1-0.1,6,1.2,8.1,3.5v-3h7.7V288
	h-7.7v-2.9c-2.1,2.3-5,3.5-8.1,3.4c-3.6,0.1-7.1-1.4-9.6-4.1c-2.6-2.9-3.9-6.6-3.8-10.5C227.9,270.1,229.2,266.3,231.8,263.4z
	 M235.4,273.9c-0.1,1.9,0.6,3.8,2,5.3c1.3,1.4,3.1,2.1,5,2.1c1.9,0.1,3.7-0.7,5-2.1c1.3-1.4,2-3.3,1.9-5.3c0.1-1.9-0.6-3.8-1.9-5.3
	c-1.3-1.4-3.1-2.1-5-2.1c-1.9,0-3.7,0.7-5,2.1C236.1,270.1,235.4,272,235.4,273.9z M269.3,259.8v5c2.1-3.5,5.9-5.6,10-5.5v7.2
	c-6.6,0.2-10,3-10,8.5V288h-7.5v-28.1H269.3z M283.6,263.4c2.6-2.8,6.3-4.3,10.2-4.1c3.7-0.2,7.4,1.3,9.9,4.1
	c2.5,2.9,3.8,6.7,3.7,10.5v2.1h-20.2c0.3,1.7,1.2,3.3,2.5,4.4c1.3,1.1,2.9,1.7,4.5,1.6c2.6,0.2,5.1-1,6.7-3l5.2,3.8
	c-1.3,1.8-3,3.3-5,4.2c-2.2,1-4.5,1.5-6.9,1.5c-3.9,0.1-7.6-1.4-10.3-4.2c-2.7-2.8-4.1-6.6-4-10.5C279.6,270,281,266.3,283.6,263.4z
	 M287.2,271.1h12.9c-0.3-1.6-1-3.1-2.2-4.2c-1.1-1.1-2.6-1.6-4.2-1.6c-1.6-0.1-3.1,0.5-4.3,1.6C288.3,268,287.4,269.5,287.2,271.1
	L287.2,271.1z M307.3,259.8h3.1v0.7h-1.2v3.2h-0.8v-3.2h-1.2V259.8z M312.2,259.8l1.2,2.3l1.2-2.3h0.8v3.9h-0.8v-2.3l-0.9,1.9h-0.6
	l-0.9-1.9v2.3h-0.8v-3.9H312.2z"/>
<path class="st0" d="M26.9,313.1h18.9l41.1,63.7v-63.7h19.4v97.6H87.4l-41-63.5v63.6H26.9V313.1z M119,320.9
	c0-5.7,4.6-10.4,10.4-10.4c5.7,0,10.4,4.6,10.4,10.4c0,5.7-4.6,10.4-10.4,10.4C123.6,331.3,119,326.6,119,320.9
	C119,320.9,119,320.9,119,320.9z M119.9,341.6h18.9l-0.2,69.1h-18.8V341.6z M150,376.2c0-20.9,14.4-35.8,35.3-35.8
	c11.1-0.3,21.6,4.9,28.1,14L200,364.8c-3.4-4.3-8.7-6.8-14.3-6.6c-10.4,0-17.5,7.7-17.5,18s7.1,18,17.5,18c5.5,0.3,10.8-2,14.3-6.3
	l13.4,10c-6.4,9.1-17,14.4-28.1,14.1C164.4,412.1,150,397.1,150,376.2z M218,376.2c0-20.6,13.5-35.9,34.4-35.9s33.2,15.3,33.2,35.9
	v5h-49.6c1.8,9.3,8.6,15,17.1,15c6.4,0.3,12.5-2.5,16.4-7.5l12.8,9.3c-6.8,9.2-17.7,14.5-29.2,14.1C232.1,412.3,218,396.8,218,376.2
	z M268.1,369.4c-1.7-8.1-6.8-14.3-15.6-14.3c-8.9,0-14.3,5.6-16.1,14.3H268.1z M295.8,313.1h19.4v80h46.4v17.7h-65.8V313.1z
	 M366.9,376.2c0-20.9,13.8-35.6,32.8-35.6c7.6-0.3,14.8,2.9,19.8,8.5v-7.5h18.8v69.1h-18.8v-7.2c-5,5.6-12.3,8.7-19.8,8.4
	C380.7,412,366.9,396.8,366.9,376.2z M419.5,376.2c0-10.4-6.8-18-17.1-18s-17.3,7.7-17.3,18c0,10.4,6.9,18,17.3,18
	C412.8,394.2,419.5,386.7,419.5,376.2L419.5,376.2z M469.8,403.6v7.2H451v-97.6h18.8v36c5-5.6,12.3-8.7,19.8-8.4
	c18.9,0,32.8,14.7,32.8,35.6s-13.8,35.8-32.8,35.8C482.1,412.4,474.8,409.2,469.8,403.6z M504.2,376.2c0-10.4-6.9-18-17.3-18
	c-10.4,0-17.1,7.7-17.1,18c0,10.4,6.8,18,17.1,18C497.3,394.2,504.3,386.7,504.2,376.2L504.2,376.2z M530.1,376.2
	c0-20.6,13.5-35.9,34.4-35.9c20.9,0,33.2,15.3,33.2,35.9v5h-49.6c1.1,8.6,8.4,15.1,17.1,15c6.4,0.4,12.5-2.5,16.4-7.5l12.8,9.3
	c-6.8,9.2-17.7,14.5-29.2,14.1C544.1,412.3,530.1,396.8,530.1,376.2z M580.2,369.4c-1.7-8.1-6.8-14.3-15.6-14.3
	c-8.9,0-14.3,5.6-16.1,14.3H580.2z M607.9,313.1h18.9l-0.2,97.6h-18.8V313.1z"/>
</svg>
