<?xml version="1.0" encoding="UTF-8"?>
<svg xmlns="http://www.w3.org/2000/svg" xmlns:xlink="http://www.w3.org/1999/xlink" width="267px" height="38px" viewBox="0 0 264 38" version="1.1">
<defs>
<filter id="alpha" filterUnits="objectBoundingBox" x="0%" y="0%" width="100%" height="100%">
  <feColorMatrix type="matrix" in="SourceGraphic" values="0 0 0 0 1 0 0 0 0 1 0 0 0 0 1 0 0 0 1 0"/>
</filter>
<mask id="mask0">
  <g filter="url(#alpha)">
<rect x="0" y="0" width="264" height="38" style="fill:rgb(0%,0%,0%);fill-opacity:0.0705882;stroke:none;"/>
  </g>
</mask>
<clipPath id="clip1">
  <rect x="0" y="0" width="264" height="38"/>
</clipPath>
<g id="surface5" clip-path="url(#clip1)">
<path style=" stroke:none;fill-rule:nonzero;fill:rgb(0%,0%,0%);fill-opacity:1;" d="M 191.359375 0 L 140.773438 0 C 138.15625 0 136.03125 2.125 136.03125 4.75 L 136.03125 33.25 C 136.03125 35.875 138.15625 38 140.773438 38 L 191.359375 38 C 193.898438 37.953125 195.96875 35.949219 196.101562 33.410156 L 196.101562 4.75 C 196.101562 2.125 193.980469 0 191.359375 0 Z M 191.359375 0 "/>
</g>
<mask id="mask1">
  <g filter="url(#alpha)">
<rect x="0" y="0" width="264" height="38" style="fill:rgb(0%,0%,0%);fill-opacity:0.0705882;stroke:none;"/>
  </g>
</mask>
<clipPath id="clip2">
  <rect x="0" y="0" width="264" height="38"/>
</clipPath>
<g id="surface8" clip-path="url(#clip2)">
<path style=" stroke:none;fill-rule:nonzero;fill:rgb(0%,0%,0%);fill-opacity:1;" d="M 123.382812 0 L 72.796875 0 C 70.179688 0 68.054688 2.125 68.054688 4.75 L 68.054688 33.25 C 68.054688 35.875 70.179688 38 72.796875 38 L 123.382812 38 C 126.003906 38 128.125 35.875 128.125 33.25 L 128.125 4.75 C 128.125 2.125 126.003906 0 123.382812 0 Z M 123.382812 0 "/>
</g>
<mask id="mask2">
  <g filter="url(#alpha)">
<rect x="0" y="0" width="264" height="38" style="fill:rgb(0%,0%,0%);fill-opacity:0.0705882;stroke:none;"/>
  </g>
</mask>
<clipPath id="clip3">
  <rect x="0" y="0" width="264" height="38"/>
</clipPath>
<g id="surface11" clip-path="url(#clip3)">
<path style=" stroke:none;fill-rule:nonzero;fill:rgb(0%,0%,0%);fill-opacity:1;" d="M 55.410156 0 L 4.820312 0 C 2.203125 0 0.078125 2.125 0.078125 4.75 L 0.078125 33.25 C 0.078125 35.875 2.203125 38 4.820312 38 L 55.410156 38 C 57.949219 37.953125 60.019531 35.949219 60.152344 33.410156 L 60.152344 4.75 C 60.152344 2.125 58.027344 0 55.410156 0 Z M 55.410156 0 "/>
</g>
<mask id="mask3">
  <g filter="url(#alpha)">
<rect x="0" y="0" width="264" height="38" style="fill:rgb(0%,0%,0%);fill-opacity:0.0705882;stroke:none;"/>
  </g>
</mask>
<clipPath id="clip4">
  <rect x="0" y="0" width="264" height="38"/>
</clipPath>
<g id="surface14" clip-path="url(#clip4)">
<path style=" stroke:none;fill-rule:nonzero;fill:rgb(0%,0%,0%);fill-opacity:1;" d="M 259.179688 0 L 208.589844 0 C 205.972656 0 203.847656 2.125 203.847656 4.75 L 203.847656 33.25 C 203.847656 35.875 205.972656 38 208.589844 38 L 259.179688 38 C 261.796875 38 263.921875 35.875 263.921875 33.25 L 263.921875 4.75 C 263.921875 2.125 261.796875 0 259.179688 0 Z M 259.179688 0 "/>
</g>
</defs>
<g id="surface1">
<use xlink:href="#surface5" mask="url(#mask0)"/>
<path style=" stroke:none;fill-rule:nonzero;fill:rgb(0%,43.529412%,81.176472%);fill-opacity:1;" d="M 191.359375 1.582031 C 193.105469 1.582031 194.523438 3 194.523438 4.75 L 194.523438 33.25 C 194.523438 35 193.105469 36.417969 191.359375 36.417969 L 140.773438 36.417969 C 139.027344 36.417969 137.613281 35 137.613281 33.25 L 137.613281 4.75 C 137.613281 3 139.027344 1.582031 140.773438 1.582031 L 191.359375 1.582031 "/>
<path style=" stroke:none;fill-rule:nonzero;fill:rgb(100%,100%,100%);fill-opacity:1;" d="M 150.257812 16.308594 L 151.523438 19.316406 L 148.992188 19.316406 Z M 175.710938 16.308594 L 170.96875 16.308594 L 170.96875 17.574219 L 175.550781 17.574219 L 175.550781 19.476562 L 170.96875 19.476562 L 170.96875 20.898438 L 175.710938 20.898438 L 175.710938 22.007812 L 179.03125 18.523438 L 175.710938 14.882812 Z M 153.421875 12.667969 L 159.742188 12.667969 L 161.167969 15.675781 L 162.429688 12.507812 L 178.871094 12.507812 L 180.609375 14.410156 L 182.351562 12.507812 L 189.78125 12.507812 L 184.246094 18.683594 L 189.78125 24.859375 L 182.191406 24.859375 L 180.453125 22.957031 L 178.714844 24.859375 L 151.839844 24.859375 L 151.050781 22.957031 L 149.308594 22.957031 L 148.519531 24.859375 L 142.355469 24.859375 L 147.492188 12.667969 Z M 167.171875 14.410156 L 163.695312 14.410156 L 161.324219 19.949219 L 158.796875 14.410156 L 155 14.410156 L 155 22.007812 L 151.839844 14.410156 L 148.679688 14.410156 L 144.882812 23.117188 L 147.414062 23.117188 L 148.203125 21.214844 L 152.3125 21.214844 L 153.105469 23.117188 L 157.371094 23.117188 L 157.371094 16.941406 L 160.21875 23.117188 L 162.113281 23.117188 L 164.960938 16.941406 L 164.960938 23.117188 L 167.171875 23.117188 Z M 181.875 18.839844 L 185.828125 14.410156 L 182.980469 14.410156 L 180.453125 17.101562 L 178.082031 14.410156 L 168.753906 14.410156 L 168.753906 23.117188 L 177.921875 23.117188 L 180.453125 20.265625 L 182.824219 22.957031 L 185.828125 22.957031 Z M 181.875 18.839844 "/>
<use xlink:href="#surface8" mask="url(#mask1)"/>
<path style=" stroke:none;fill-rule:nonzero;fill:rgb(100%,100%,100%);fill-opacity:1;" d="M 123.382812 1.582031 C 125.128906 1.582031 126.546875 3 126.546875 4.75 L 126.546875 33.25 C 126.546875 35 125.128906 36.417969 123.382812 36.417969 L 72.796875 36.417969 C 71.050781 36.417969 69.636719 35 69.636719 33.25 L 69.636719 4.75 C 69.636719 3 71.050781 1.582031 72.796875 1.582031 L 123.382812 1.582031 "/>
<path style=" stroke:none;fill-rule:nonzero;fill:rgb(92.156863%,0%,10.588235%);fill-opacity:1;" d="M 102.785156 19 C 102.785156 12.878906 97.832031 7.917969 91.71875 7.917969 C 85.609375 7.917969 80.65625 12.878906 80.65625 19 C 80.65625 25.121094 85.609375 30.082031 91.71875 30.082031 C 97.832031 30.082031 102.785156 25.121094 102.785156 19 Z M 102.785156 19 "/>
<path style=" stroke:none;fill-rule:nonzero;fill:rgb(96.862745%,61.960787%,10.588235%);fill-opacity:1;" d="M 115.433594 19 C 115.433594 12.878906 110.476562 7.917969 104.367188 7.917969 C 98.253906 7.917969 93.300781 12.878906 93.300781 19 C 93.300781 25.121094 98.253906 30.082031 104.367188 30.082031 C 110.476562 30.082031 115.433594 25.121094 115.433594 19 Z M 115.433594 19 "/>
<path style=" stroke:none;fill-rule:nonzero;fill:rgb(100%,37.254903%,0%);fill-opacity:1;" d="M 102.832031 19 C 102.859375 15.386719 101.078125 12 98.089844 9.976562 C 95.117188 12.015625 93.34375 15.390625 93.34375 19 C 93.34375 22.609375 95.117188 25.984375 98.089844 28.023438 C 101.042969 25.96875 102.8125 22.601562 102.832031 19 Z M 102.832031 19 "/>
<use xlink:href="#surface11" mask="url(#mask2)"/>
<path style=" stroke:none;fill-rule:nonzero;fill:rgb(100%,100%,100%);fill-opacity:1;" d="M 55.410156 1.582031 C 57.15625 1.582031 58.570312 3 58.570312 4.75 L 58.570312 33.25 C 58.570312 35 57.15625 36.417969 55.410156 36.417969 L 4.820312 36.417969 C 3.074219 36.417969 1.660156 35 1.660156 33.25 L 1.660156 4.75 C 1.660156 3 3.074219 1.582031 4.820312 1.582031 L 55.410156 1.582031 "/>
<path style=" stroke:none;fill-rule:nonzero;fill:rgb(7.843138%,14.901961%,53.333336%);fill-opacity:1;" d="M 44.816406 15.992188 L 44.34375 15.992188 C 43.605469 17.496094 43.074219 19.09375 42.761719 20.742188 L 45.765625 20.742188 C 45.601562 19.132812 45.285156 17.539062 44.816406 15.992188 Z M 49.402344 25.332031 L 46.714844 25.332031 C 46.554688 25.332031 46.554688 25.332031 46.398438 25.175781 L 46.082031 23.75 L 45.921875 23.433594 L 42.128906 23.433594 C 41.972656 23.433594 41.8125 23.433594 41.8125 23.75 L 41.339844 25.175781 C 41.339844 25.332031 41.339844 25.332031 41.179688 25.332031 L 37.859375 25.332031 L 38.175781 24.542969 L 42.761719 13.773438 C 42.761719 12.984375 43.234375 12.667969 44.027344 12.667969 L 46.398438 12.667969 C 46.554688 12.667969 46.714844 12.667969 46.714844 12.984375 L 48.925781 23.273438 C 49.109375 23.839844 49.214844 24.425781 49.242188 25.015625 C 49.402344 25.175781 49.402344 25.175781 49.402344 25.332031 Z M 28.21875 24.859375 L 28.851562 22.007812 C 29.007812 22.007812 29.007812 22.007812 29.167969 22.167969 C 30.195312 22.675781 31.34375 22.894531 32.484375 22.800781 C 32.871094 22.769531 33.25 22.660156 33.59375 22.484375 C 34.382812 22.167969 34.382812 21.375 33.75 20.742188 C 33.367188 20.421875 32.941406 20.15625 32.484375 19.949219 C 31.851562 19.675781 31.265625 19.300781 30.746094 18.839844 C 29.351562 17.792969 29.066406 15.808594 30.113281 14.410156 L 30.589844 13.933594 C 31.539062 13.300781 32.011719 12.667969 33.277344 12.667969 C 34.917969 12.535156 36.566406 12.640625 38.175781 12.984375 L 38.335938 12.984375 C 38.199219 13.898438 37.988281 14.796875 37.703125 15.675781 C 36.957031 15.316406 36.15625 15.101562 35.332031 15.042969 C 34.851562 15.015625 34.371094 15.070312 33.910156 15.199219 C 33.660156 15.203125 33.429688 15.320312 33.277344 15.515625 C 33.125 15.660156 33.039062 15.859375 33.039062 16.070312 C 33.039062 16.28125 33.125 16.480469 33.277344 16.625 L 34.066406 17.257812 C 34.699219 17.574219 35.171875 17.890625 35.804688 18.207031 C 36.628906 18.71875 37.246094 19.503906 37.542969 20.425781 C 37.835938 21.8125 37.277344 23.246094 36.121094 24.066406 C 35.539062 24.664062 34.742188 25.003906 33.910156 25.015625 C 32.109375 25.148438 30.304688 25.042969 28.535156 24.699219 C 28.375 25.015625 28.375 25.015625 28.21875 24.859375 Z M 22.683594 25.332031 C 22.714844 24.792969 22.820312 24.261719 23 23.75 C 23.792969 20.265625 24.582031 16.625 25.214844 13.140625 C 25.371094 12.824219 25.371094 12.667969 25.6875 12.667969 L 28.535156 12.667969 C 28.21875 14.410156 27.902344 15.992188 27.425781 17.734375 C 26.953125 20.109375 26.480469 22.484375 25.847656 24.859375 C 25.847656 25.175781 25.6875 25.175781 25.371094 25.175781 M 7.984375 12.984375 C 7.984375 12.824219 8.300781 12.667969 8.457031 12.667969 L 13.832031 12.667969 C 14.59375 12.652344 15.261719 13.183594 15.414062 13.933594 L 16.835938 20.898438 C 16.835938 21.058594 16.835938 21.058594 16.992188 21.214844 L 17.152344 21.058594 L 20.472656 12.984375 C 20.3125 12.824219 20.472656 12.667969 20.628906 12.667969 L 23.949219 12.667969 C 23.949219 12.824219 23.949219 12.824219 23.792969 12.984375 L 18.890625 24.542969 C 18.734375 24.859375 18.734375 25.015625 18.574219 25.175781 C 18.417969 25.332031 18.101562 25.175781 17.785156 25.175781 L 15.414062 25.175781 C 15.253906 25.175781 15.097656 25.175781 15.097656 24.859375 L 12.566406 15.042969 C 12.230469 14.554688 11.722656 14.214844 11.144531 14.089844 C 10.195312 13.660156 9.179688 13.394531 8.140625 13.300781 Z M 7.984375 12.984375 "/>
<use xlink:href="#surface14" mask="url(#mask3)"/>
<path style=" stroke:none;fill-rule:nonzero;fill:rgb(100%,100%,100%);fill-opacity:1;" d="M 259.179688 1.582031 C 260.925781 1.582031 262.339844 3 262.339844 4.75 L 262.339844 33.25 C 262.339844 35 260.925781 36.417969 259.179688 36.417969 L 208.589844 36.417969 C 206.84375 36.417969 205.429688 35 205.429688 33.25 L 205.429688 4.75 C 205.429688 3 206.84375 1.582031 208.589844 1.582031 L 259.179688 1.582031 "/>
<path style=" stroke:none;fill-rule:nonzero;fill:rgb(18.82353%,52.549022%,78.431374%);fill-opacity:1;" d="M 222.820312 19 L 222.820312 24.859375 C 222.820312 25.332031 222.503906 25.332031 222.027344 25.175781 C 218.867188 23.621094 217.320312 19.984375 218.394531 16.625 C 218.980469 14.878906 220.3125 13.488281 222.027344 12.824219 C 222.660156 12.507812 222.820312 12.667969 222.820312 13.140625 Z M 225.980469 19 L 225.980469 13.140625 C 225.980469 12.667969 225.980469 12.667969 226.457031 12.824219 C 229.808594 14.191406 231.484375 17.96875 230.25 21.375 C 229.660156 23.121094 228.328125 24.511719 226.613281 25.175781 C 225.980469 25.492188 225.980469 25.332031 225.980469 24.859375 Z M 237.363281 7.917969 L 224.398438 7.917969 C 227.273438 7.929688 230.027344 9.089844 232.042969 11.140625 C 234.0625 13.191406 235.179688 15.960938 235.148438 18.839844 L 235.148438 19 C 235.222656 21.878906 234.144531 24.667969 232.15625 26.75 C 230.167969 28.828125 227.433594 30.03125 224.558594 30.082031 L 237.363281 30.082031 C 240.238281 30.070312 242.988281 28.910156 245.007812 26.859375 C 247.023438 24.808594 248.140625 22.039062 248.113281 19.160156 L 248.113281 19 C 248.183594 16.121094 247.105469 13.332031 245.117188 11.25 C 243.128906 9.171875 240.394531 7.96875 237.519531 7.917969 Z M 237.363281 7.917969 "/>
</g>
</svg>
