<?xml version="1.0" encoding="utf-8"?>
<!-- Generator: Adobe Illustrator 19.2.1, SVG Export Plug-In . SVG Version: 6.00 Build 0)  -->
<svg version="1.1" id="layer" xmlns="http://www.w3.org/2000/svg" xmlns:xlink="http://www.w3.org/1999/xlink" x="0px" y="0px"
	 viewBox="0 0 652 652" style="enable-background:new 0 0 652 652;" xml:space="preserve">
<style type="text/css">
	.st0{fill:#231F20;}
	.st1{fill:#008FBE;}
	.st2{fill:#FFA400;}
	.st3{fill:#FFFFFF;}
	.st4{clip-path:url(#SVGID_2_);}
	.st5{clip-path:url(#SVGID_4_);fill:#231F20;}
	.st6{clip-path:url(#SVGID_6_);}
	.st7{clip-path:url(#SVGID_8_);fill:#231F20;}
	.st8{clip-path:url(#SVGID_10_);}
	.st9{clip-path:url(#SVGID_12_);fill:#231F20;}
</style>
<g>
	<g>
		<g>
			<g>
				<path class="st0" d="M609.7,327.7c6.1,0,11,4.4,11,10c0,5.6-4.9,10-11,10c-6,0-10.8-4.4-10.8-10
					C598.9,332.1,603.7,327.7,609.7,327.7 M609.7,346.2c5.2,0,9.2-3.7,9.2-8.5c0-4.8-4-8.5-9.2-8.5c-5.1,0-9,3.7-9,8.5
					C600.7,342.5,604.6,346.2,609.7,346.2 M606.1,332.3h4.3c2.1,0,3.6,1.3,3.6,3.2c0,1.6-1.1,2.6-2.2,2.8v0.1c0,0,0.1,0.1,0.4,0.6
					l2.3,4h-1.9l-2.4-4.3h-2.3v4.3h-1.7V332.3z M610,337.5c1.3,0,2.1-0.7,2.1-2c0-1.2-0.8-1.9-2.1-1.9h-2.2v3.9H610z"/>
			</g>
		</g>
	</g>
	<path class="st1" d="M126.5,262.2h27.7c13.4,0,23,7.6,23,20.6c0,7.9-3.8,14.2-9.9,17.4v0.2c8.3,2.5,13,10.5,13,19.6
		c0,15.2-11.6,23-25.5,23h-28.4V262.2z M154.2,296.2c7.2,0,11.7-5.2,11.7-12.3c0-7.1-4.3-11.9-11.9-11.9h-16.4v24.2H154.2z
		 M155.5,333.2c8.5,0,13.6-5.5,13.6-13.7c0-8.2-5.4-13.9-13.7-13.9h-17.7v27.6H155.5z"/>
	<path class="st1" d="M221.8,306.8h2.5v-1c0-9.5-5.3-12.7-12.5-12.7c-8.8,0-15.8,5.6-15.8,5.6l-4.5-8.1c0,0,8.2-6.9,21.2-6.9
		c14.4,0,22.5,8,22.5,22.7V343h-10.1v-5.5c0-2.6,0.2-4.6,0.2-4.6h-0.2c0,0-4.6,11.5-18.2,11.5c-9.8,0-19.3-6.1-19.3-17.6
		C187.6,307.6,212.3,306.8,221.8,306.8 M209.3,335.5c9.2,0,15.2-9.8,15.2-18.4v-1.8h-2.8c-8.2,0-23,0.6-23,11
		C198.6,330.9,202.2,335.5,209.3,335.5"/>
	<path class="st1" d="M247.9,285.1h10.6v10.1c0,2.4-0.2,4.4-0.2,4.4h0.2c2.6-8.5,9.2-15.1,18-15.1c1.5,0,2.8,0.2,2.8,0.2v11
		c0,0-1.5-0.3-3.1-0.3c-7,0-13.4,5-15.9,13.6c-1,3.3-1.3,6.9-1.3,10.4V343h-10.9V285.1z"/>
	<g>
		<g>
			<g>
				<polygon class="st0" points="295.2,272 268,272 268,262.2 333.5,262.2 333.5,272 306.3,272 306.3,343 295.2,343 				"/>
			</g>
		</g>
	</g>
	<g>
		<g>
			<g>
				<path class="st0" d="M354,283.7c16,0,24.6,12.1,24.6,27.1c0,1.5-0.3,4.8-0.3,4.8h-41.4c0.6,12.7,9.4,19.1,19.5,19.1
					c9.8,0,16.8-6.8,16.8-6.8l4.5,8.1c0,0-8.4,8.2-22,8.2c-17.8,0-30.1-13.2-30.1-30.4C325.6,295.6,337.8,283.7,354,283.7
					 M367.5,307.3c-0.3-10-6.4-14.8-13.7-14.8c-8.3,0-15,5.3-16.6,14.8H367.5z"/>
			</g>
		</g>
	</g>
	<g>
		<g>
			<g>
				<path class="st0" d="M388.6,285.1h10.6v7.7c0,2.3-0.2,4.2-0.2,4.2h0.2c2.2-5,9-13.3,21.3-13.3c13.4,0,19.5,7.4,19.5,22.2V343
					h-10.9v-34.6c0-8.1-1.7-14.5-10.8-14.5c-8.6,0-15.6,5.8-18,14.2c-0.7,2.3-0.9,4.9-0.9,7.8V343h-10.9V285.1z"/>
			</g>
		</g>
	</g>
	<g>
		<g>
			<g>
				<path class="st0" d="M475.2,283.7c13.1,0,17.5,9.2,17.5,9.2h0.2c0,0-0.2-1.7-0.2-3.9v-26.8h10.9V343h-10.3v-5.5
					c0-2.3,0.1-3.9,0.1-3.9h-0.2c0,0-4.6,10.8-18.6,10.8c-15.4,0-25-12.4-25-30.3C449.5,295.6,460.2,283.7,475.2,283.7 M476.7,334.8
					c8.4,0,16.4-6.1,16.4-20.8c0-10.3-5.3-20.6-16.1-20.6c-9,0-16.4,7.6-16.4,20.7C460.7,326.6,467.3,334.8,476.7,334.8"/>
			</g>
		</g>
	</g>
	<g>
		<g>
			<g>
				<path class="st0" d="M541.8,283.7c16,0,24.6,12.1,24.6,27.1c0,1.5-0.3,4.8-0.3,4.8h-41.4c0.6,12.7,9.4,19.1,19.5,19.1
					c9.8,0,16.8-6.8,16.8-6.8l4.5,8.1c0,0-8.4,8.2-22,8.2c-17.8,0-30.1-13.2-30.1-30.4C513.4,295.6,525.7,283.7,541.8,283.7
					 M555.3,307.3c-0.3-10-6.4-14.8-13.7-14.8c-8.3,0-15,5.3-16.6,14.8H555.3z"/>
			</g>
		</g>
	</g>
	<g>
		<g>
			<g>
				<path class="st0" d="M576.4,285.1H587v10.1c0,2.4-0.2,4.4-0.2,4.4h0.2c2.6-8.5,9.2-15.1,18-15.1c1.5,0,2.8,0.2,2.8,0.2v11
					c0,0-1.5-0.3-3.1-0.3c-7,0-13.4,5-15.9,13.6c-1,3.3-1.3,6.9-1.3,10.4V343h-10.9V285.1z"/>
			</g>
		</g>
	</g>
	<path class="st1" d="M55.5,301.9v-40H29.8c-5,0-9.1,4.1-9.1,9.1v63c0,5,4.1,9.1,9.1,9.1h63c5,0,9.1-4.1,9.1-9.1v-22.6H65.1
		C59.8,311.4,55.5,307.1,55.5,301.9"/>
	<path class="st2" d="M92.8,261.9H55.5l46.4,49.5V271C101.9,265.9,97.8,261.9,92.8,261.9"/>
	<path class="st3" d="M55.5,301.9c0,5.2,4.3,9.5,9.5,9.5h36.8l-46.4-49.5V301.9z"/>
	<g>
		<g>
			<g>
				<path class="st0" d="M294.8,361.9h6.5c3.1,0,5.4,1.8,5.4,4.8c0,1.8-0.9,3.3-2.3,4.1v0.1c1.9,0.6,3,2.5,3,4.6
					c0,3.6-2.7,5.4-6,5.4h-6.6V361.9z M301.3,369.9c1.7,0,2.7-1.2,2.7-2.9c0-1.7-1-2.8-2.8-2.8h-3.8v5.6H301.3z M301.6,378.5
					c2,0,3.2-1.3,3.2-3.2s-1.3-3.2-3.2-3.2h-4.1v6.5H301.6z"/>
			</g>
		</g>
	</g>
	<g>
		<g>
			<g>
				<path class="st0" d="M314.9,372.8l-6.2-10.9h2.9l3.4,6.2c0.6,1,1.1,2.4,1.1,2.4h0.1c0,0,0.5-1.3,1.1-2.4l3.4-6.2h2.9l-6.2,10.9
					v8h-2.6V372.8z"/>
			</g>
		</g>
	</g>
	<g>
		<g>
			<g>
				<path class="st0" d="M333.1,376.7c0,0,2,2,4.7,2c1.7,0,3.2-1,3.2-2.8c0-4.1-9-3.2-9-9c0-2.9,2.5-5.3,6-5.3
					c3.4,0,5.3,1.9,5.3,1.9l-1.2,2.2c0,0-1.7-1.6-4.1-1.6c-2,0-3.4,1.3-3.4,2.8c0,3.9,9,2.9,9,9c0,2.9-2.2,5.3-5.9,5.3
					c-3.9,0-6.1-2.5-6.1-2.5L333.1,376.7z"/>
			</g>
		</g>
	</g>
	<g>
		<g>
			<g>
				<polygon class="st0" points="347.5,361.9 358.3,361.9 358.3,364.2 350.1,364.2 350.1,370.1 356.8,370.1 356.8,372.5 
					350.1,372.5 350.1,378.5 358.7,378.5 358.7,380.8 347.5,380.8 				"/>
			</g>
		</g>
	</g>
	<g>
		<g>
			<g>
				<path class="st0" d="M372.5,375.4h-7l-1.8,5.4H361l6.7-18.9h2.7l6.7,18.9h-2.7L372.5,375.4z M369,364.5c0,0-0.4,1.7-0.7,2.7
					l-2.1,6h5.6l-2-6C369.4,366.2,369,364.5,369,364.5L369,364.5z"/>
			</g>
		</g>
	</g>
	<g>
		<g>
			<g>
				<path class="st0" d="M387.7,361.6c4.4,0,6.7,2.3,6.7,2.3l-1.3,2c0,0-2.1-1.8-5.2-1.8c-4.4,0-7,3.2-7,7.3c0,4.4,2.9,7.4,6.8,7.4
					c3.2,0,5.3-2.4,5.3-2.4v-2.7h-3v-2.3h5.4v9.5h-2.3v-1.2c0-0.4,0-0.8,0-0.8H393c0,0-2,2.3-5.7,2.3c-5,0-9.1-4-9.1-9.8
					C378.2,365.9,382.3,361.6,387.7,361.6"/>
			</g>
		</g>
	</g>
	<g>
		<g>
			<g>
				<path class="st0" d="M399.4,361.9h2.6v12.2c0,2.9,1.8,4.6,4.7,4.6c2.9,0,4.7-1.7,4.7-4.6v-12.2h2.6v12.2c0,4.2-3,7-7.3,7
					s-7.3-2.8-7.3-7V361.9z"/>
			</g>
		</g>
	</g>
	<g>
		<g>
			<g>
				<polygon class="st0" points="418.9,361.9 421.5,361.9 421.5,378.5 429.8,378.5 429.8,380.8 418.9,380.8 				"/>
			</g>
		</g>
	</g>
	<g>
		<g>
			<g>
				<polygon class="st0" points="432.8,361.9 435.4,361.9 435.4,378.5 443.7,378.5 443.7,380.8 432.8,380.8 				"/>
			</g>
		</g>
	</g>
	<g>
		<g>
			<g>
				<path class="st0" d="M453.4,376.7c0,0,2,2,4.7,2c1.7,0,3.2-1,3.2-2.8c0-4.1-9-3.2-9-9c0-2.9,2.5-5.3,6-5.3
					c3.4,0,5.3,1.9,5.3,1.9l-1.2,2.2c0,0-1.7-1.6-4.1-1.6c-2,0-3.4,1.3-3.4,2.8c0,3.9,9,2.9,9,9c0,2.9-2.2,5.3-5.9,5.3
					c-3.9,0-6.1-2.5-6.1-2.5L453.4,376.7z"/>
			</g>
		</g>
	</g>
	<g>
		<g>
			<g>
				<path class="st0" d="M475.9,361.6c4.5,0,6.7,2.5,6.7,2.5l-1.3,2c0,0-2.2-2.1-5.4-2.1c-4.1,0-6.9,3.2-6.9,7.2
					c0,4,2.8,7.5,6.9,7.5c3.5,0,5.7-2.5,5.7-2.5l1.4,1.9c0,0-2.5,3-7.2,3c-5.6,0-9.5-4.3-9.5-9.9
					C466.5,365.8,470.5,361.6,475.9,361.6"/>
			</g>
		</g>
	</g>
	<g>
		<g>
			<defs>
				<rect id="SVGID_1_" x="486.5" y="361.9" width="2.6" height="18.9"/>
			</defs>
			<clipPath id="SVGID_2_">
				<use xlink:href="#SVGID_1_"  style="overflow:visible;"/>
			</clipPath>
			<g class="st4">
				<defs>
					<rect id="SVGID_3_" x="486.5" y="361.9" width="2.6" height="18.9"/>
				</defs>
				<clipPath id="SVGID_4_">
					<use xlink:href="#SVGID_3_"  style="overflow:visible;"/>
				</clipPath>
				<rect x="486.5" y="361.9" class="st5" width="2.6" height="18.9"/>
			</g>
		</g>
	</g>
	<g>
		<g>
			<g>
				<polygon class="st0" points="494.2,361.9 505,361.9 505,364.2 496.8,364.2 496.8,370.1 503.5,370.1 503.5,372.5 496.8,372.5 
					496.8,378.5 505.4,378.5 505.4,380.8 494.2,380.8 				"/>
			</g>
		</g>
	</g>
	<g>
		<g>
			<g>
				<path class="st0" d="M508.9,361.9h2.6l8.2,12.3c0.7,1,1.5,2.7,1.5,2.7h0.1c0,0-0.2-1.7-0.2-2.7v-12.3h2.6v18.9h-2.5l-8.3-12.3
					c-0.7-1-1.5-2.8-1.5-2.8h-0.1c0,0,0.2,1.7,0.2,2.8v12.3h-2.6V361.9z"/>
			</g>
		</g>
	</g>
	<g>
		<g>
			<g>
				<polygon class="st0" points="533,364.2 526.6,364.2 526.6,361.9 541.9,361.9 541.9,364.2 535.6,364.2 535.6,380.8 533,380.8 
									"/>
			</g>
		</g>
	</g>
	<g>
		<g>
			<defs>
				<rect id="SVGID_5_" x="544.8" y="361.9" width="2.6" height="18.9"/>
			</defs>
			<clipPath id="SVGID_6_">
				<use xlink:href="#SVGID_5_"  style="overflow:visible;"/>
			</clipPath>
			<g class="st6">
				<defs>
					<rect id="SVGID_7_" x="544.8" y="361.9" width="2.6" height="18.9"/>
				</defs>
				<clipPath id="SVGID_8_">
					<use xlink:href="#SVGID_7_"  style="overflow:visible;"/>
				</clipPath>
				<rect x="544.8" y="361.9" class="st7" width="2.6" height="18.9"/>
			</g>
		</g>
	</g>
	<g>
		<g>
			<g>
				<polygon class="st0" points="552.5,361.9 562.7,361.9 562.7,364.2 555.1,364.2 555.1,370.4 561.6,370.4 561.6,372.7 
					555.1,372.7 555.1,380.8 552.5,380.8 				"/>
			</g>
		</g>
	</g>
	<g>
		<g>
			<defs>
				<rect id="SVGID_9_" x="566" y="361.9" width="2.6" height="18.9"/>
			</defs>
			<clipPath id="SVGID_10_">
				<use xlink:href="#SVGID_9_"  style="overflow:visible;"/>
			</clipPath>
			<g class="st8">
				<defs>
					<rect id="SVGID_11_" x="566" y="361.9" width="2.6" height="18.9"/>
				</defs>
				<clipPath id="SVGID_12_">
					<use xlink:href="#SVGID_11_"  style="overflow:visible;"/>
				</clipPath>
				<rect x="566" y="361.9" class="st9" width="2.6" height="18.9"/>
			</g>
		</g>
	</g>
	<g>
		<g>
			<g>
				<path class="st0" d="M581.9,361.6c4.5,0,6.7,2.5,6.7,2.5l-1.3,2c0,0-2.2-2.1-5.4-2.1c-4.1,0-6.9,3.2-6.9,7.2
					c0,4,2.8,7.5,6.9,7.5c3.5,0,5.7-2.5,5.7-2.5l1.4,1.9c0,0-2.5,3-7.2,3c-5.6,0-9.5-4.3-9.5-9.9
					C572.5,365.8,576.5,361.6,581.9,361.6"/>
			</g>
		</g>
	</g>
</g>
</svg>
