<?xml version="1.0" encoding="utf-8"?>
<!-- Generator: Adobe Illustrator 22.0.1, SVG Export Plug-In . SVG Version: 6.00 Build 0)  -->
<svg version="1.1" id="Layer_1" xmlns="http://www.w3.org/2000/svg" xmlns:xlink="http://www.w3.org/1999/xlink" x="0px" y="0px"
	 viewBox="0 0 399.642 129.741" enable-background="new 0 0 399.642 129.741" xml:space="preserve">
<g>
	<g>
		<rect x="25.161" y="55.807" fill-rule="evenodd" clip-rule="evenodd" fill="#DA283D" width="15.212" height="37.087"/>
		<rect x="25.161" y="56.316" fill-rule="evenodd" clip-rule="evenodd" fill="#DA283D" width="15.212" height="37.087"/>
		<polygon fill-rule="evenodd" clip-rule="evenodd" fill="#DA283D" points="161.551,47.446 144.794,47.446 125.458,68.06 
			125.253,68.06 125.253,47.446 109.945,47.446 109.945,92.894 125.253,92.894 125.253,71.616 149.503,92.894 168.714,92.894 
			141.628,68.767 		"/>
		<g>
			<path fill="#78787D" d="M37.984,116.655c0.909,0.786,1.364,2.005,1.364,3.658c0,4.051-2.821,6.076-8.463,6.076h-5.89V105.03
				h5.053c2.708,0,4.779,0.445,6.216,1.333c1.436,0.89,2.154,2.243,2.154,4.062c0,1.24-0.387,2.273-1.163,3.1
				c-0.775,0.827-1.72,1.354-2.836,1.581C35.887,115.354,37.075,115.87,37.984,116.655z M27.94,107.355v6.728h3.224
				c1.24,0,2.258-0.3,3.053-0.899c0.795-0.599,1.194-1.446,1.194-2.542c0-1.24-0.418-2.098-1.255-2.573
				c-0.837-0.475-2.104-0.713-3.798-0.713H27.94z M34.869,123.259c0.919-0.517,1.379-1.498,1.379-2.945
				c0-1.405-0.445-2.418-1.333-3.038c-0.889-0.62-2.046-0.93-3.472-0.93H27.94v7.688h2.945
				C32.622,124.033,33.949,123.775,34.869,123.259z"/>
			<path fill="#78787D" d="M55.035,124.049c0.227,0.321,0.568,0.563,1.023,0.729l-0.652,1.984c-0.848-0.104-1.529-0.341-2.045-0.713
				c-0.518-0.372-0.9-0.95-1.147-1.736c-1.096,1.633-2.718,2.449-4.867,2.449c-1.612,0-2.883-0.454-3.813-1.364
				c-0.93-0.909-1.395-2.097-1.395-3.564c0-1.736,0.625-3.069,1.875-3.999c1.25-0.931,3.022-1.396,5.316-1.396h2.511v-1.209
				c0-1.157-0.279-1.983-0.837-2.479c-0.558-0.496-1.416-0.744-2.573-0.744c-1.199,0-2.666,0.289-4.402,0.868l-0.713-2.077
				c2.025-0.744,3.906-1.116,5.642-1.116c1.922,0,3.358,0.471,4.309,1.41c0.951,0.941,1.426,2.279,1.426,4.015v7.471
				C54.693,123.238,54.806,123.729,55.035,124.049z M51.841,122.081v-3.751h-2.139c-3.018,0-4.526,1.115-4.526,3.348
				c0,0.972,0.237,1.705,0.713,2.201c0.475,0.496,1.178,0.744,2.108,0.744C49.629,124.623,50.911,123.775,51.841,122.081z"/>
			<path fill="#78787D" d="M69.263,109.866l-0.527,2.79c-0.496-0.124-0.972-0.186-1.426-0.186c-1.013,0-1.829,0.372-2.449,1.116
				s-1.105,1.901-1.457,3.472v9.331h-2.852v-16.337H63l0.279,3.317c0.435-1.22,1.023-2.14,1.768-2.76
				c0.743-0.62,1.611-0.93,2.604-0.93C68.229,109.681,68.767,109.742,69.263,109.866z"/>
			<path fill="#78787D" d="M81.136,110.1c0.806,0.278,1.58,0.729,2.324,1.348l-1.363,1.799c-0.579-0.414-1.143-0.719-1.689-0.915
				c-0.548-0.196-1.152-0.294-1.813-0.294c-1.323,0-2.352,0.526-3.085,1.58c-0.733,1.055-1.101,2.615-1.101,4.682
				s0.361,3.591,1.085,4.572s1.757,1.473,3.101,1.473c0.64,0,1.229-0.098,1.767-0.295c0.537-0.196,1.137-0.511,1.798-0.945
				l1.302,1.86c-1.487,1.198-3.151,1.798-4.99,1.798c-2.212,0-3.953-0.744-5.224-2.232c-1.271-1.487-1.907-3.544-1.907-6.169
				c0-1.735,0.29-3.255,0.868-4.557s1.4-2.314,2.465-3.038s2.33-1.085,3.798-1.085C79.441,109.681,80.33,109.82,81.136,110.1z"/>
			<path fill="#78787D" d="M98.822,111.975c1.271,1.529,1.906,3.606,1.906,6.231c0,1.694-0.29,3.188-0.868,4.479
				c-0.578,1.291-1.416,2.294-2.511,3.007c-1.096,0.713-2.397,1.069-3.906,1.069c-2.294,0-4.082-0.765-5.362-2.294
				c-1.282-1.529-1.923-3.606-1.923-6.231c0-1.694,0.29-3.188,0.868-4.479c0.578-1.291,1.416-2.294,2.512-3.007
				c1.095-0.713,2.407-1.069,3.937-1.069C95.768,109.681,97.55,110.445,98.822,111.975z M89.227,118.236
				c0,4.154,1.405,6.231,4.216,6.231s4.216-2.087,4.216-6.262c0-4.154-1.395-6.231-4.185-6.231
				C90.642,111.975,89.227,114.062,89.227,118.236z"/>
			<path fill="#78787D" d="M118.087,103.48v22.909h-2.511l-0.279-2.263c-0.537,0.826-1.209,1.473-2.015,1.938
				s-1.705,0.697-2.697,0.697c-1.942,0-3.456-0.765-4.541-2.294s-1.628-3.586-1.628-6.169c0-1.674,0.258-3.162,0.775-4.464
				c0.516-1.303,1.26-2.32,2.231-3.054s2.108-1.101,3.41-1.101c1.674,0,3.142,0.672,4.402,2.015v-8.556L118.087,103.48z
				 M113.438,123.895c0.62-0.403,1.219-1.008,1.798-1.813v-7.998c-0.538-0.703-1.111-1.235-1.721-1.597s-1.297-0.543-2.062-0.543
				c-1.261,0-2.237,0.527-2.93,1.581c-0.692,1.055-1.038,2.625-1.038,4.712c0,2.108,0.32,3.679,0.961,4.712
				c0.641,1.034,1.56,1.551,2.759,1.551C112.074,124.499,112.818,124.297,113.438,123.895z"/>
			<path fill="#78787D" d="M136.253,119.197h-10.416c0.124,1.799,0.579,3.121,1.364,3.969s1.798,1.271,3.038,1.271
				c0.785,0,1.509-0.113,2.17-0.341s1.354-0.589,2.077-1.085l1.24,1.705c-1.736,1.364-3.638,2.046-5.704,2.046
				c-2.273,0-4.046-0.744-5.316-2.232c-1.271-1.487-1.907-3.533-1.907-6.138c0-1.694,0.274-3.198,0.822-4.511
				c0.547-1.312,1.333-2.34,2.355-3.084c1.023-0.744,2.227-1.116,3.611-1.116c2.17,0,3.834,0.713,4.991,2.139
				c1.157,1.427,1.736,3.4,1.736,5.921C136.316,118.216,136.294,118.701,136.253,119.197z M133.495,116.903
				c0-1.611-0.32-2.841-0.961-3.688s-1.602-1.271-2.883-1.271c-2.336,0-3.606,1.716-3.813,5.146h7.657V116.903z"/>
			<path fill="#78787D" d="M162.231,116.655c0.909,0.786,1.364,2.005,1.364,3.658c0,4.051-2.821,6.076-8.463,6.076h-5.891V105.03
				h5.054c2.707,0,4.778,0.445,6.215,1.333c1.437,0.89,2.155,2.243,2.155,4.062c0,1.24-0.388,2.273-1.163,3.1
				c-0.774,0.827-1.721,1.354-2.836,1.581C160.133,115.354,161.322,115.87,162.231,116.655z M152.187,107.355v6.728h3.224
				c1.24,0,2.258-0.3,3.054-0.899c0.796-0.599,1.193-1.446,1.193-2.542c0-1.24-0.418-2.098-1.255-2.573
				c-0.837-0.475-2.104-0.713-3.798-0.713H152.187z M159.116,123.259c0.919-0.517,1.379-1.498,1.379-2.945
				c0-1.405-0.444-2.418-1.333-3.038s-2.046-0.93-3.472-0.93h-3.503v7.688h2.945C156.868,124.033,158.196,123.775,159.116,123.259z"
				/>
			<path fill="#78787D" d="M180.21,119.197h-10.416c0.124,1.799,0.579,3.121,1.364,3.969s1.798,1.271,3.038,1.271
				c0.785,0,1.509-0.113,2.17-0.341s1.354-0.589,2.077-1.085l1.24,1.705c-1.736,1.364-3.638,2.046-5.704,2.046
				c-2.273,0-4.046-0.744-5.316-2.232c-1.271-1.487-1.907-3.533-1.907-6.138c0-1.694,0.274-3.198,0.822-4.511
				c0.547-1.312,1.333-2.34,2.355-3.084c1.023-0.744,2.227-1.116,3.611-1.116c2.17,0,3.834,0.713,4.991,2.139
				c1.157,1.427,1.736,3.4,1.736,5.921C180.273,118.216,180.251,118.701,180.21,119.197z M177.452,116.903
				c0-1.611-0.32-2.841-0.961-3.688s-1.602-1.271-2.883-1.271c-2.336,0-3.606,1.716-3.813,5.146h7.657V116.903z"/>
			<path fill="#78787D" d="M193.076,125.646c-1.075,0.744-2.294,1.116-3.658,1.116c-1.385,0-2.465-0.397-3.239-1.193
				c-0.775-0.796-1.163-1.948-1.163-3.457v-9.857h-2.852v-2.201h2.852v-3.689l2.853-0.341v4.03h3.875l-0.311,2.201h-3.564v9.733
				c0,0.848,0.149,1.463,0.449,1.845c0.299,0.383,0.801,0.573,1.503,0.573c0.641,0,1.364-0.217,2.171-0.65L193.076,125.646z"/>
			<path fill="#78787D" d="M204.266,125.646c-1.074,0.744-2.293,1.116-3.658,1.116c-1.385,0-2.465-0.397-3.239-1.193
				c-0.775-0.796-1.163-1.948-1.163-3.457v-9.857h-2.852v-2.201h2.852v-3.689l2.853-0.341v4.03h3.875l-0.311,2.201h-3.565v9.733
				c0,0.848,0.149,1.463,0.449,1.845c0.299,0.383,0.801,0.573,1.502,0.573c0.641,0,1.365-0.217,2.172-0.65L204.266,125.646z"/>
			<path fill="#78787D" d="M219.486,119.197H209.07c0.123,1.799,0.578,3.121,1.363,3.969s1.799,1.271,3.039,1.271
				c0.785,0,1.508-0.113,2.17-0.341c0.66-0.228,1.354-0.589,2.076-1.085l1.24,1.705c-1.736,1.364-3.637,2.046-5.703,2.046
				c-2.273,0-4.047-0.744-5.316-2.232c-1.271-1.487-1.908-3.533-1.908-6.138c0-1.694,0.275-3.198,0.822-4.511
				c0.547-1.312,1.334-2.34,2.355-3.084c1.023-0.744,2.227-1.116,3.611-1.116c2.17,0,3.834,0.713,4.992,2.139
				c1.156,1.427,1.736,3.4,1.736,5.921C219.549,118.216,219.527,118.701,219.486,119.197z M216.727,116.903
				c0-1.611-0.32-2.841-0.961-3.688s-1.602-1.271-2.883-1.271c-2.336,0-3.605,1.716-3.812,5.146h7.656V116.903z"/>
			<path fill="#78787D" d="M232.816,109.866l-0.527,2.79c-0.496-0.124-0.973-0.186-1.426-0.186c-1.014,0-1.83,0.372-2.449,1.116
				c-0.621,0.744-1.105,1.901-1.457,3.472v9.331h-2.852v-16.337h2.447l0.279,3.317c0.436-1.22,1.023-2.14,1.768-2.76
				s1.611-0.93,2.604-0.93C231.781,109.681,232.32,109.742,232.816,109.866z"/>
		</g>
		<polygon fill-rule="evenodd" clip-rule="evenodd" fill="#DA283D" points="62.578,47.446 2.896,47.446 2.896,55.807 25.162,55.807 
			25.162,92.894 40.374,92.894 40.374,55.807 62.578,55.807 		"/>
		<polygon fill-rule="evenodd" clip-rule="evenodd" fill="#DA283D" points="107.363,84.55 77.411,84.55 77.411,73.683 
			105.378,73.683 105.378,65.27 77.411,65.27 77.411,55.807 106.782,55.807 106.782,47.446 62.106,47.446 62.106,92.894 
			107.363,92.894 		"/>
		<rect x="2.896" y="47.446" fill-rule="evenodd" clip-rule="evenodd" fill="#DA283D" width="103.886" height="8.361"/>
		<rect x="62.106" y="48.044" fill-rule="evenodd" clip-rule="evenodd" fill="#DA283D" width="15.667" height="44.851"/>
		<rect x="2.896" y="47.39" fill-rule="evenodd" clip-rule="evenodd" fill="#DA283D" width="103.886" height="8.361"/>
		<rect x="62.106" y="47.553" fill-rule="evenodd" clip-rule="evenodd" fill="#DA283D" width="15.667" height="44.851"/>
	</g>
</g>
<g display="none">
	<path display="inline" fill-rule="evenodd" clip-rule="evenodd" fill="#78787D" d="M333.659,92.765
		c1.31-0.925,2.622-1.865,3.932-2.823c4.63-3.383,9.067-6.834,13.288-10.316l14.739,13.268h19.734l-24.66-21.768
		c8.65-7.876,16.113-15.767,22.094-23.272c0.109-0.136,0.212-0.271,0.32-0.407h-19.497c0,0-0.001,0.001-0.001,0.002l-0.343,0.406
		c-3.812,4.553-8.208,9.302-13.093,14.133l-15.904-14.541h-19.733l26.151,23.464c-5.25,4.704-10.91,9.421-16.909,14.052
		c-3.451,2.664-6.892,5.201-10.305,7.615c-0.153,0.108-0.305,0.21-0.458,0.317h20.443c0.062-0.044,0.124-0.086,0.187-0.129H333.659z
		"/>
</g>
<g>
	<linearGradient id="SVGID_1_" gradientUnits="userSpaceOnUse" x1="285.858" y1="93.4993" x2="285.858" y2="125.4993">
		<stop  offset="0" style="stop-color:#FFFFFF;stop-opacity:0"/>
		<stop  offset="1" style="stop-color:#DA283D"/>
	</linearGradient>
	<path fill="url(#SVGID_1_)" d="M313.015,92.894L313.015,92.894c-23.872,16.816-46.219,27.264-59.632,28.364
		c-5.517,0.452-9.521-0.676-11.504-3.586c-3.419-5.02-0.212-14.492,7.826-26.056v-5.686c-10.453,14.878-14.338,27.641-9.175,34.823
		c10.111,14.06,51.158,1.567,92.927-27.858l0,0H313.015z"/>
</g>
<g>
	<linearGradient id="SVGID_2_" gradientUnits="userSpaceOnUse" x1="381.3554" y1="46.4993" x2="381.3554" y2="10.943">
		<stop  offset="0" style="stop-color:#FFFFFF;stop-opacity:0"/>
		<stop  offset="1" style="stop-color:#DA283D"/>
	</linearGradient>
	<path fill="url(#SVGID_2_)" d="M383.107,47.446c13.804-17.446,19.58-32.766,13.724-40.909c-0.003-0.005-0.007-0.009-0.011-0.013
		c-0.195-0.27-0.402-0.53-0.62-0.781c-0.101-0.116-0.212-0.224-0.318-0.337c-0.123-0.131-0.244-0.264-0.374-0.389
		c-0.15-0.144-0.309-0.279-0.467-0.415c-0.094-0.081-0.186-0.166-0.283-0.244c-0.191-0.154-0.392-0.301-0.595-0.445
		c-0.071-0.05-0.139-0.103-0.212-0.152c-0.231-0.157-0.47-0.306-0.714-0.45c-0.049-0.029-0.096-0.059-0.146-0.087
		c-0.268-0.153-0.544-0.299-0.827-0.438c-0.029-0.014-0.057-0.029-0.086-0.043c-0.302-0.145-0.613-0.283-0.933-0.412
		c-0.011-0.004-0.022-0.009-0.033-0.013c-0.333-0.134-0.675-0.259-1.026-0.375l-12.322,9.622c0.198,0.222,0.398,0.442,0.567,0.689
		c4.285,6.291-1.818,19.56-14.822,35.193c0,0,0.001-0.001,0.001-0.002H383.107z"/>
</g>
<g>
	<path fill-rule="evenodd" clip-rule="evenodd" fill="#78787D" d="M333.659,92.765c1.31-0.925,2.622-1.865,3.932-2.823
		c4.63-3.383,9.067-6.834,13.288-10.316l14.739,13.268h19.734l-24.66-21.768c8.65-7.876,16.113-15.767,22.094-23.272
		c0.109-0.136,0.212-0.271,0.32-0.407h-19.497c0,0-0.001,0.001-0.001,0.002l-0.343,0.406c-3.812,4.553-8.208,9.302-13.093,14.133
		l-15.904-14.541h-19.733l26.151,23.464c-5.25,4.704-10.91,9.421-16.909,14.052c-3.451,2.664-6.892,5.201-10.305,7.615
		c-0.153,0.108-0.305,0.21-0.458,0.317h20.443c0.062-0.044,0.124-0.086,0.187-0.129H333.659z"/>
</g>
<polygon fill-rule="evenodd" clip-rule="evenodd" fill="#78787D" points="212.444,84.55 180.967,84.55 180.967,47.446 
	165.724,47.446 165.724,92.894 212.444,92.894 "/>
<polygon fill-rule="evenodd" clip-rule="evenodd" fill="#78787D" points="218.146,92.894 233.436,92.894 233.436,71.696 
	257.561,47.446 239.201,47.446 225.752,61.759 212.444,47.446 193.878,47.446 218.146,71.696 "/>
<polygon fill-rule="evenodd" clip-rule="evenodd" fill="#78787D" points="314.786,47.446 299.495,47.446 299.495,75.195 
	266.82,47.446 252.79,47.446 252.79,92.894 268.035,92.894 268.035,63.807 302.014,92.894 314.786,92.894 "/>
<linearGradient id="SVGID_3_" gradientUnits="userSpaceOnUse" x1="305.5877" y1="70.609" x2="358.5642" y2="-5.0494">
	<stop  offset="0" style="stop-color:#FFFFFF;stop-opacity:0"/>
	<stop  offset="0.4032" style="stop-color:#DA283D"/>
</linearGradient>
<path fill="url(#SVGID_3_)" d="M391.212,2.319c-0.402-0.162-0.818-0.311-1.247-0.447c-3.233-1.027-7.221-1.334-11.826-0.957
	C359,2.481,329.317,15.756,299.77,37.346c-7.09,5.181-13.72,10.52-19.823,15.887l3.082,2.777c4.269-3.703,8.782-7.402,13.504-11.046
	c36.66-28.301,72.318-42.915,81.186-33.556c0.049,0.052,0.336,0.375,0.383,0.429l12.245-9.838
	C390.698,2.115,390.879,2.185,391.212,2.319z"/>
</svg>
