<?xml version="1.0" encoding="utf-8"?>
<!-- Generator: Adobe Illustrator 26.0.3, SVG Export Plug-In . SVG Version: 6.00 Build 0)  -->
<svg version="1.0" id="Layer_1" xmlns="http://www.w3.org/2000/svg" xmlns:xlink="http://www.w3.org/1999/xlink" x="0px" y="0px"
	 viewBox="0 0 963 693.8" style="enable-background:new 0 0 963 693.8;" xml:space="preserve">
<g id="layer1">
	<g id="g1688">
		<path id="path1017" d="M258.4,350.5l-17.8-17.8V383h17.8V350.5z"/>
		<path id="path1029" d="M187.4,297h43.3L213,279.3l-0.1-0.1h-22.7c16.1-1.5,27.9-15.8,26.4-31.9c-1.4-15-14-26.5-29.1-26.5v58.5
			l0,0l-48.6-48.5c-2.6,1.3-5.1,2.8-7.5,4.4c-2.7,1.7-5.2,3.6-7.7,5.6l46,45.8v100.6l35.5,35.5v-25.1l-17.8-17.8L187.4,297z"/>
		<path id="path1033" d="M205.2,297.1l-0.1,85.8h17.8l0.1-67.9L205.2,297.1z"/>
		<path id="path1037" d="M266.1,332.7l-17.8-17.8h-25.4l17.7,17.8L266.1,332.7z"/>
		<path id="path1049" d="M151.9,370.6v-1.1l0,0v-75.4l-40.8-40.8c-3.8,4.7-7.2,9.8-10,15.1l33,33v25.1l0,0L94,286.5
			c-1.9,7.2-2.9,14.6-3,22.1C91,308.6,149.9,368.5,151.9,370.6"/>
		<path id="path1053" d="M91.3,334.1v25.1L205.1,473v-25.1L91.3,334.1z"/>
		<path id="path1065" d="M294,360.6h-17.8V383h-17.8c0.3,16.2,13.6,29,29.8,28.7c15.7-0.3,28.4-13,28.7-28.7L294,360.6z"/>
		<path id="path1069" d="M438.6,383.4l-13.3,25.3h-83l54-103.7h-47.8l13.3-25.3h83l-54,103.7H438.6z"/>
		<path id="path1073" d="M486.8,331.4h42.5v25.4h-42.5v26.7h42.5v25.3h-73.9v-129h73.9v25.3h-42.6V331.4z"/>
		<path id="path1085" d="M588.8,279.7c16.4,0,25.9,1.7,32.9,6.2c8.9,5.4,14.3,16.5,14.3,28.8c0,9.1-2.9,16.6-8.7,22.4
			c-3.7,3.9-6.6,5.6-13.5,7.5c7.9,1.7,11.4,3.5,15.5,7.4c5.8,5.4,8.7,13,8.7,22.4c0,12-4.8,22.6-13.2,28.2c-6.4,4.2-14.1,6-27.3,6
			h-52.8v-129L588.8,279.7z M576.1,333.1h7.7c14.3,0,20.3-4.4,20.3-15.1c0-10.5-6-14.9-20.7-14.9h-7.3V333.1z M576.1,386.3h11.4
			c13.2,0,18.8-4.5,18.8-14.9c0-6.2-2.3-10.6-7-13.1c-3.5-1.9-6.6-2.3-16.1-2.3h-7.1L576.1,386.3z"/>
		<path id="path1089" d="M681.5,408.7h-31.4v-129h41.8c17,0,29.4,3.1,37.9,9.7c8.9,7,13.9,18.6,13.9,32.7c0,19.7-8.3,32.7-25,39.3
			l28.4,47.4h-37.5l-28.2-49.9V408.7z M691.5,341.2c12.8,0,20.5-6.6,20.5-17.8c0-10.6-7.5-18-18.6-18h-11.9v35.8L691.5,341.2z"/>
		<path id="path1093" d="M838,408.7h34l-42.4-129h-39.9l-42.5,129h33l8-25.4H830L838,408.7z M796.2,358l13-41.3l12.9,41.3H796.2z"/>
	</g>
</g>
</svg>
